# xmcd CD database file
#
# Track frame offsets:
#	150
#	18258
#	48331
#	62951
#	88812
#	111084
#	135431
#	170786
#	193660
#	223542
#	245562
#	262185
#	286918
#	307016
#	335812
#
# Disc length: 4517 seconds
#
# Revision: 0
# Processed by: cddbd v1.5.1PL0 Copyright (c) Steve Scherf et al.
# Submitted via: CDex 1.51
#
DISCID=ea11a30f
DTITLE=Bill Evans - 75th Birthday Celebration Disc 3 - Peace Piece - The Composer Plays the Bill Evans Songbook
DYEAR=2004
DGENRE=Jazz
TTITLE0=Five
TTITLE1=Peace Piece
TTITLE2=Peri's Scope
TTITLE3=Re: Person I Knew
TTITLE4=Walking Up
TTITLE5=My Bells
TTITLE6=Turn Out The Stars
TTITLE7=Time Remembered
TTITLE8=Funkallero
TTITLE9=Show-type Tune
TTITLE10=Since We Met
TTITLE11=Very Early
TTITLE12=Your Story
TTITLE13=Waltz For Debby
TTITLE14=Epilogue
EXTD=YEAR: 2004
EXTT0=
EXTT1=
EXTT2=
EXTT3=
EXTT4=
EXTT5=
EXTT6=
EXTT7=
EXTT8=
EXTT9=
EXTT10=
EXTT11=
EXTT12=
EXTT13=
EXTT14=
PLAYORDER=
